<?xml version="1.0" encoding="UTF-8" standalone="no"?>
<!DOCTYPE svg PUBLIC "-//W3C//DTD SVG 1.1//EN" "http://www.w3.org/Graphics/SVG/1.1/DTD/svg11.dtd">
<svg width="1056px" height="1056px" version="1.1" xmlns="http://www.w3.org/2000/svg" xmlns:xlink="http://www.w3.org/1999/xlink" xml:space="preserve" xmlns:serif="http://www.serif.com/" style="fill-rule:evenodd;clip-rule:evenodd;">
    <g>
        <path d="M24.351,61.933L397.547,443.719L471.676,516.181L511.788,549.404L544.5,569.143L579.859,582.044L636.207,590.896L712.323,598.48L764.34,609.554L806.955,625.259L840.163,644.141L860.031,660.942L873.881,678.216L884.196,698.427L892.853,731.624L897.491,801.821L897.927,1031.89" style="fill:none;fill-rule:nonzero;stroke:black;stroke-width:1.01px;"/>
        <path d="M898.461,1031.71L898.016,799.418L894.851,741.872L888.038,707.662L880.293,688.097L869.418,670.739L852.679,653.053L822.118,632.062L781.053,614.02L731.268,600.784L615.127,587.233L574.999,578.899L540.167,564.643L502.418,539.42L432.234,474.934L24.219,58.189" style="fill:none;fill-rule:nonzero;stroke:black;stroke-width:1.01px;"/>
        <path d="M24.096,65.281L393.8,443.502L468.703,516.759L508.781,550.025L541.436,569.86L574.593,582.35L622.588,590.785L705.936,598.498L757.072,608.36L799.555,622.794L833.406,640.515L856.111,658.208L871.261,675.842L881.288,693.703L890.585,723.838L896.147,780.052L897.097,1031.74" style="fill:none;fill-rule:nonzero;stroke:black;stroke-width:1.01px;"/>
        <path d="M24.229,69.024L392.785,446.043L466.55,518.083L507.596,551.914L541.925,572.173L578.549,584.813L630.055,592.444L704.617,598.82L713.95,600.129" style="fill:none;fill-rule:nonzero;stroke:black;stroke-width:1.01px;"/>
        <path d="M24.22,102.398L366.469,452.412L440.747,524.721L481.469,558.073L514.338,577.546L547.146,589.372L592.557,596.415L690.61,599.947L741.703,606.598L784.452,618.285L819.948,633.888L845.476,650.497L862.791,666.832L874.787,683.434L884.006,703.564L892.408,741.942L895.926,839.951L896.155,1031.77" style="fill:none;fill-rule:nonzero;stroke:black;stroke-width:1.01px;"/>
        <path d="M24.088,98.654L371.768,454.212L445.702,526.079L486.555,559.266L517.128,577.191L554.299,589.924L602.627,596.151L690.713,599.292L705.613,600.723" style="fill:none;fill-rule:nonzero;stroke:black;stroke-width:1.01px;"/>
        <path d="M24.353,106.142L364.27,453.784L438.898,526.528L479.092,559.653L512.826,579.833L548.874,592.426L594.965,598.65L690.837,600.979L741.427,607.222L774.214,615.448" style="fill:none;fill-rule:nonzero;stroke:black;stroke-width:1.01px;"/>
        <path d="M24.369,153.89L327.124,463.432L402.987,537.292L444.497,571.433L478.712,591.889L511.52,603.701L552.594,609.757L681.639,605.625L731.408,608.586L772.099,616.955L812.1,631.713L840.321,648.161L857.994,663.277L870.284,678.261L880.539,697.253L889.121,726.455L894.59,786.571L895.502,1031.61" style="fill:none;fill-rule:nonzero;stroke:black;stroke-width:1.01px;"/>
        <path d="M24.236,150.146L333.597,466.409L407.957,538.633L448.707,571.956L479.065,590.246L511.728,602.454L551.654,608.68L683.47,604.972L733.773,608.246L766.349,614.871" style="fill:none;fill-rule:nonzero;stroke:black;stroke-width:1.01px;"/>
        <path d="M24.114,157.236L324.923,464.804L400.311,538.359L443.443,574.015L476.648,594.009L508.859,605.846L549.355,612L618.025,610.483L686.11,607.09L733.662,610.027L779.138,619.797L817.229,634.89L844.896,652.246L847.057,653.982" style="fill:none;fill-rule:nonzero;stroke:black;stroke-width:1.01px;"/>
        <path d="M24.244,213.592L294.176,489.318L365.129,557.887L407.681,592.504L442.001,612.788L473.767,624.242L513.19,630.058L567.986,628.121L670.781,614.736L719.506,613.216L761.835,618.38L799.557,629.466L832.222,645.829L854.516,663.151L867.956,678.606L877.89,695.879L886.887,723.792L892.822,777.178L894.081,1031.63" style="fill:none;fill-rule:nonzero;stroke:black;stroke-width:1.01px;"/>
        <path d="M868.12,678.012L855.068,662.954L832.345,645.284L799.196,628.651L760.953,617.379L716.384,612.328L658.852,615.256L567.073,627.395L516.702,629.161L483.705,625.266L450.95,615.021L414.648,594.887L365.988,555.509L24.111,209.847" style="fill:none;fill-rule:nonzero;stroke:black;stroke-width:1.01px;"/>
        <path d="M24.376,217.335L294.319,493.052L365.322,561.569L406.598,595.123L440.377,615.237L473.692,627.273L512.597,632.825L567.379,630.568L673.373,616.041L720.986,614.666L761.692,619.401L799.476,630.262L830.308,645.346L853.66,663.099L867.196,678.472L877.914,697.205L886.928,726.272L892.662,784.135" style="fill:none;fill-rule:nonzero;stroke:black;stroke-width:1.01px;"/>
        <path d="M24.152,258.085L272.882,511.896L341.752,577.83L382.836,610.738L417.751,631.102L451.712,642.972L491.219,648.205L544.31,645.422L669.296,623.268L716.757,619.113L759.284,622.152L797.37,631.873L827.539,645.775L848.326,660.486L861.147,673.508L871.476,688.578L880.957,711.005L888.557,751.814L891.827,1031.71" style="fill:none;fill-rule:nonzero;stroke:black;stroke-width:1.01px;"/>
        <path d="M24.019,254.34L276.622,512.12L344.67,577.309L385.253,609.957L420.147,630.354L448.754,640.801L484.251,646.664L529.653,646.208L672.826,622.067L719.769,618.391L761.712,621.805L799.662,632.051L830.083,646.713L831.024,647.3" style="fill:none;fill-rule:nonzero;stroke:black;stroke-width:1.01px;"/>
        <path d="M24.285,261.829L272.632,515.239L342.352,581.888L383.089,614.339L418.085,634.564L451.034,645.98L488.882,651.119L539.223,648.79L668.45,625.212L718.624,620.297L756.761,622.514L794.467,631.466L812.01,638.341" style="fill:none;fill-rule:nonzero;stroke:black;stroke-width:1.01px;"/>
        <path d="M24.142,288.924L253.121,522.504L323.584,589.981L365.059,623.288L400.355,644.101L433.135,656.006L471.446,661.787L519.594,660.087L606.23,644.087L680.537,628.428L726.311,624.152L766.615,627.17L802.456,636.705L830.044,649.603L847.675,662.074L860.51,675.081L870.299,689.179L878.131,706.301L886.373,741.88L890.476,831.541L890.936,1031.68" style="fill:none;fill-rule:nonzero;stroke:black;stroke-width:1.01px;"/>
        <path d="M24.01,285.18L256.078,521.943L326.922,589.822L367.947,622.805L402.27,643.091L437.181,655.592L473.9,660.843L521.495,658.962L605.951,643.348L680.806,627.605L726.027,623.36L766.878,626.43L799.564,634.932L824.907,646.1L827.795,647.751" style="fill:none;fill-rule:nonzero;stroke:black;stroke-width:1.01px;"/>
        <path d="M24.275,292.668L254.831,527.806L324.176,594.045L365.748,627.23L400.646,647.629L433.471,659.411L471.253,664.995L519.396,663.171L602.72,647.553L680.674,630.387L727.504,625.492L768.908,628.4L804.656,638.284L830.162,650.411L847.804,662.867L849.891,664.692" style="fill:none;fill-rule:nonzero;stroke:black;stroke-width:1.01px;"/>
        <path d="M24.034,313.064L241.44,534.699L309.971,600.187L352.758,634.512L388.55,655.578L420.784,667.372L458.509,673.33L506.109,671.907L579.711,658.584L675.69,635.671L722.89,629.212L762.185,630.296L794.697,637.122L822.407,648.35L842.495,661.129L857.888,675.476L867.85,688.768L877.382,708.751L885.526,743.787L889.508,830.126L889.993,1031.93" style="fill:none;fill-rule:nonzero;stroke:black;stroke-width:1.01px;"/>
        <path d="M24.289,309.718L246.75,536.488L313.308,600.029L357.48,635.28L392.485,655.494L423.234,666.516L463.75,672.455L514.08,670.2L595.614,654.065L679.226,634.277L725.931,628.326L764.109,629.783L797.049,637.232L825.067,649.161L842.719,660.623L857.748,674.547L867.784,687.783L870.313,692.085" style="fill:none;fill-rule:nonzero;stroke:black;stroke-width:1.01px;"/>
        <path d="M24.167,316.809L237.658,534.518L308.484,602.417L352.069,637.521L387.314,658.424L420.547,670.704L458.273,676.653L506.421,675.113L577.814,662.028L676.343,637.859L724.024,630.833L761.677,631.29L797.426,638.824L824.945,650.502L842.563,662.012L857.559,675.974L867.784,689.758L876.829,708.749L880.051,718.775" style="fill:none;fill-rule:nonzero;stroke:black;stroke-width:1.01px;"/>
        <path d="M24.355,334.338L233.297,547.189L302.033,612.457L344.643,646.114L380.14,666.588L412.986,678.318L451.306,684.045L498.897,682.298L570.249,668.991L677.155,641.764L723.651,634.307L761.854,634.317L792.375,639.781L819.857,650.059L840.204,662.415L855.016,675.748L866.237,690.852L875.671,711.488L884.26,751.526L887.756,882.808L888.221,1031.94" style="fill:none;fill-rule:nonzero;stroke:black;stroke-width:1.01px;"/>
        <path d="M24.222,330.594L237.823,548.194L303.289,610.469L347.097,645.289L382.58,665.785L418.139,678.116L458.774,683.293L509.072,680.253L587.213,664.098L679.065,640.659L726.147,633.395L764.346,633.906L797.436,640.618L824.531,651.865L832.199,656.321" style="fill:none;fill-rule:nonzero;stroke:black;stroke-width:1.01px;"/>
        <path d="M24.101,337.686L232.655,550.14L300.126,614.327L342.574,648.193L377.875,669.006L410.57,681.148L448.262,687.309L494.209,686.212L561.315,674.356L681.017,643.469L728.595,635.781L769.006,636.459L801.977,643.749L827.299,654.923L845.062,667.193L858.654,680.996L868.316,695.846L876.623,716.369L884.327,757.159L887.71,1031.51" style="fill:none;fill-rule:nonzero;stroke:black;stroke-width:1.01px;"/>
        <path d="M24.234,341.429L231.242,552.294L299.148,616.827L341.678,650.587L377.561,671.5L410.343,683.409L448.627,689.376L496.775,687.756L567.044,674.697L679.679,645.263L726.084,637.258L764.283,636.785L794.814,642.197L819.706,651.509L822.187,652.746" style="fill:none;fill-rule:nonzero;stroke:black;stroke-width:1.01px;"/>
        <path d="M24.382,355.712L224.857,559.782L291.68,623.04L334.771,656.984L370.256,677.48L405.199,689.906L443.545,695.476L492.232,693.485L561.895,680.19L680.781,648.376L728.804,639.994L767.001,639.759L796.951,645.259L822.242,655.059L842.526,667.508L855.401,679.677L865.222,693.072L872.963,709.013L881.682,743.907L886.129,821.335L886.768,1031.45" style="fill:none;fill-rule:nonzero;stroke:black;stroke-width:1.01px;"/>
        <path d="M24.249,351.968L225.455,556.876L294.192,622.143L336.318,655.522L370.696,675.727L405.517,688.495L441.059,694.121L491.421,692.476L559.506,679.787L678.948,647.907L726.381,639.349L764.023,638.615L794.596,643.758L820.049,653.141L840.094,664.925L852.61,675.849L860.46,685.175" style="fill:none;fill-rule:nonzero;stroke:black;stroke-width:1.01px;"/>
        <path d="M24.128,359.059L226.178,564.69L291.849,626.747L334.967,660.654L369.964,680.893L404.879,693.4L443.21,699.068L491.348,697.207L559.399,684.336L683.518,650.639L731.485,641.945L769.125,641.333L797.449,646.495L819.775,654.772L838.949,665.852L852.767,677.798L862.79,690.342L872.448,709.023" style="fill:none;fill-rule:nonzero;stroke:black;stroke-width:1.01px;"/>
        <path d="M24.128,368.32L218.417,566.033L284.419,628.547L328.314,663.259L364.727,684.361L400.185,696.994L438.523,702.618L486.112,700.827L554.722,687.938L683.072,652.903L731.015,644.067L767.548,643.327L797.028,648.291L822.414,657.83L839.839,668.6L852.844,680.626L863.861,695.885L873.772,718.733L881.582,759.494L885.083,1031.62" style="fill:none;fill-rule:nonzero;stroke:black;stroke-width:1.01px;"/>
        <path d="M24.382,364.973L219.015,563.126L286.937,627.644L331.234,662.739L366.669,683.324L402.118,695.977L438.805,701.441L484.202,700.015L553.963,687.273L683.424,652.097L731.375,643.314L769.015,642.687L797.38,647.612L822.236,656.997L840.637,668.286L854.031,680.709L865.015,695.99L874.862,718.86L882.699,761.869L885.894,1031.8" style="fill:none;fill-rule:nonzero;stroke:black;stroke-width:1.01px;"/>
        <path d="M24.261,372.064L217.376,568.599L284.165,631.895L327.13,665.999L362.914,687.089L398.223,700.132L435.388,706.119L481.337,705.08L546.805,693.519L687.384,654.885L734.198,646.038L766.855,645.206L794.812,649.184L817.368,656.811L834.845,666.391L847.793,676.798L858.001,688.468L865.798,701.229L875.118,726.104L881.976,772.656L884.416,1031.52" style="fill:none;fill-rule:nonzero;stroke:black;stroke-width:1.01px;"/>
        <path d="M24.007,375.411L215.976,570.74L284.459,635.469L327.149,669.027L362.573,689.635L397.965,702.452L438.48,708.458L486.065,706.586L552.493,694.082L688.709,656.3L733.875,647.663L769.292,646.408L794.51,650.012L817.629,657.687L835.107,667.26L847.639,677.306L852.267,682.084" style="fill:none;fill-rule:nonzero;stroke:black;stroke-width:1.01px;"/>
        <path d="M24.034,385.068L211.389,575.604L277.482,638.02L320.078,671.7L357.373,693.49L392.761,706.324L431.054,712.252L478.653,710.807L545.678,698.502L687.17,659.007L733.936,649.897L769.35,648.706L797.252,653.011L819.69,660.961L837.308,671.402L850.467,683.257L860.391,695.879L867.941,710.051L875.93,736.546L881.669,794.964L883.113,1031.68" style="fill:none;fill-rule:nonzero;stroke:black;stroke-width:1.01px;"/>
        <path d="M883.612,1031.92L882.687,811.828L879.367,754.29L872.879,721.707L865.285,702.678L857.701,690.435L846.626,678.053L829.826,665.406L808.744,655.611L781.834,649.135L746.433,648.006L696.131,656.071L557.299,694.785L493.799,707.885L445.747,711.546L408.243,708.249L372.554,698.157L334.111,678.496L286.712,642.916L189.242,549.966L24.288,381.72" style="fill:none;fill-rule:nonzero;stroke:black;stroke-width:1.01px;"/>
        <path d="M24.168,388.811L212.322,580.117L279.317,643.189L322.544,676.959L360.053,698.375L395.601,710.758L435.623,716.326L483.751,714.138L551.744,700.966L690.932,661.462L738.76,652.022L774.174,650.912L797.167,654.403L817.631,661.301L835.028,671.022L847.748,681.702L857.736,693.564L866.501,708.957L875.128,736.406L880.954,793.702L882.444,1031.53" style="fill:none;fill-rule:nonzero;stroke:black;stroke-width:1.01px;"/>
        <path d="M24.301,392.555L210.902,582.277L276.658,644.242L319.784,678.143L357.172,699.775L393.155,712.582L433.14,718.406L479.075,716.807L545.002,704.654L691.686,663.152L738.955,653.734L774.366,652.621L799.544,656.456L817.387,662.479L832.545,670.544L845.224,680.401L855.248,691.493L864.254,706.099L872.886,730.046L879.592,779.416L881.794,1031.64" style="fill:none;fill-rule:nonzero;stroke:black;stroke-width:1.01px;"/>
        <path d="M24.047,395.903L208.716,583.637L276.535,647.452L319.34,680.864L357.335,702.541L392.877,714.946L432.886,720.612L481.572,718.506L549.578,705.411L690.826,665.05L738.587,655.264L774.543,653.773L799.727,657.548L820.101,664.692L835.021,673.181L847.745,683.857L857.864,696.318L867.063,713.989L875.393,744.982L880.349,815.156L881.279,1031.92" style="fill:none;fill-rule:nonzero;stroke:black;stroke-width:1.01px;"/>
        <path d="M24.18,399.646L206.119,584.622L273.472,648.125L317.045,682.355L353.448,703.483L389.88,716.679L428.17,722.633L474.117,721.454L537.416,710.341L694.757,665.81L741.482,656.496L774.679,655.286L799.338,658.83L817.227,664.706L835.145,674.628L847.77,685.416L858.048,698.456L865.931,713.703L874.379,744.087L879.534,812.574L880.605,1031.56" style="fill:none;fill-rule:nonzero;stroke:black;stroke-width:1.01px;"/>
        <path d="M24.313,403.39L205.105,587.162L272.075,650.263L317.042,685.404L353.566,706.32L390.088,719.264L428.416,724.986L476.013,723.447L541.948,711.335L693.842,667.901L741.606,658.134L776.46,656.77L799.468,660.176L817.357,666.042L834.785,675.712L845.075,684.126L855.21,695.857L863.962,711.258L872.731,739.24L878.465,797.104L879.964,1031.61" style="fill:none;fill-rule:nonzero;stroke:black;stroke-width:1.01px;"/>
        <path d="M24.059,406.738L202.912,588.528L269.025,650.925L312.012,685.005L349.681,707.261L385.475,720.595L424.799,727.071L471.304,726.114L534.627,715.141L696.702,669.03L743.406,659.62L777.15,658.343L799.621,661.579L817.518,667.423L833.074,675.906L845.136,685.646L855.173,697.46L863.096,711.426L871.373,736.665L877.523,790.579L879.305,1031.73" style="fill:none;fill-rule:nonzero;stroke:black;stroke-width:1.01px;"/>
        <path d="M24.194,410.481L201.497,590.686L267.616,653.073L311.987,688.081L349.792,710.1L385.673,723.197L425.588,729.489L471.538,728.323L534.299,717.347L697.396,670.777L744.083,661.269L777.273,660.004L801.914,663.667L817.667,668.945L832.741,677.157L845.172,687.318L855.09,699.229L863.085,713.789L871.013,739.144L876.918,794.76L878.588,1031.47" style="fill:none;fill-rule:nonzero;stroke:black;stroke-width:1.01px;"/>
        <path d="M24.327,414.225L201.674,594.385L266.653,655.559L311.534,690.812L349.924,712.921L385.357,725.639L425.294,731.794L471.242,730.552L536.693,718.893L696.511,672.945L743.69,663.078L776.872,661.457L802.077,665.063L817.323,670.117L832.434,678.263L844.864,688.426L853.465,698.558L862.663,714.973L870.693,741.454L876.394,799.32L877.954,1031.6" style="fill:none;fill-rule:nonzero;stroke:black;stroke-width:1.01px;"/>
        <path d="M24.073,417.573L201.045,597.323L266.51,658.788L309.678,692.638L347.514,714.606L382.859,727.57L422.746,734.043L469.25,733.044L532.032,722.193L698.808,674.383L746.563,664.586L779.2,663.33L802.2,666.731L817.452,671.779L832.555,679.934L843.29,688.672L852.664,699.6L860.97,713.979L869.183,739.237L875.362,794.82L877.094,1031.53" style="fill:none;fill-rule:nonzero;stroke:black;stroke-width:1.01px;"/>
        <path d="M24.207,421.316L198.85,598.692L264.271,660.204L309.202,695.395L347.099,717.256L383.018,730.256L422.386,736.492L468.89,735.435L532.208,724.434L701.084,675.904L746.663,666.513L779.296,665.134L801.226,668.236L819.604,674.372L832.217,681.318L842.541,689.688L852.568,701.507L860.913,716.498L869.227,744.042L874.877,804.697L876.304,1031.99" style="fill:none;fill-rule:nonzero;stroke:black;stroke-width:1.01px;"/>
        <path d="M24.34,425.06L196.258,599.673L263.723,663.058L308.278,697.827L344.699,718.928L380.529,732.177L420.399,738.763L466.355,737.989L529.176,727.376L700.718,678.105L746.81,668.451L779.438,666.874L799.752,669.562L815.126,674.21L829.921,681.752L841.718,690.93L850.507,700.898L858.239,713.693L866.457,736.612L873.003,784.331L875.439,1031.56" style="fill:none;fill-rule:nonzero;stroke:black;stroke-width:1.01px;"/>
        <path d="M24.087,428.408L194.843,601.83L261.473,664.484L306.866,699.982L343.79,721.317L380.177,734.652L420.615,741.189L466.569,740.287L529.918,729.472L701.422,680.068L746.954,670.435L779.574,668.728L802.059,671.819L817.323,676.824L830.019,683.615L840.073,691.437L849.99,702.62L858.1,716.476L865.288,736.835L872.012,785.644L874.432,1031.77" style="fill:none;fill-rule:nonzero;stroke:black;stroke-width:1.01px;"/>
        <path d="M24.22,432.151L193.442,603.973L261.343,667.701L305.022,701.795L342.373,723.502L380.332,737.357L420.797,743.736L468.406,742.527L532.25,731.309L703.705,681.727L749.267,672.251L781.897,670.888L804.851,674.542L819.961,679.977L832.825,687.585L842.384,695.996L850.392,705.903L857.686,718.957L865.255,742.104L871.409,794.902L873.426,1031.61" style="fill:none;fill-rule:nonzero;stroke:black;stroke-width:1.01px;"/>
        <path d="M24.354,435.895L195.97,610.027L261.193,670.936L305.448,705.19L342.438,726.413L379.925,739.957L420.4,746.27L468.56,745.007L534.554,733.231L703.829,684.08L751.565,674.194L777.006,672.779L797.389,674.898L814.927,680.016L830.104,688.019L839.921,696.124L850.079,708.555L857.954,723.804L865.663,751.53L870.876,816.124L872.176,1031.78" style="fill:none;fill-rule:nonzero;stroke:black;stroke-width:1.01px;"/>
        <path d="M24.1,439.243L192.59,610.229L258.951,672.358L304.494,707.66L342.025,729.048L378.466,742.237L418.361,748.683L465.976,747.739L529.322,736.903L645.575,703.968L716.33,683.263L758.859,675.661L784.331,675.264L804.535,678.625L819.605,684.151L832.375,691.923L842.451,701.406L850.087,711.604L858.244,728.561L866.33,764.17L870.379,863.268L871.099,1031.8" style="fill:none;fill-rule:nonzero;stroke:black;stroke-width:1.01px;"/>
        <path d="M24.234,442.986L191.969,613.159L256.299,673.404L301.261,708.555L339.581,730.794L377.54,744.665L417.977,751.222L466.143,750.233L529.486,739.367L646.798,706.103L719.175,685.029L761.756,677.746L787.226,677.75L807.341,681.596L822.193,687.69L832.399,694.343L842.66,704.431L852.163,718.711L860.227,739.916L867.174,787.01L869.881,1031.46" style="fill:none;fill-rule:nonzero;stroke:black;stroke-width:1.01px;"/>
        <path d="M24.368,446.73L190.95,615.704L256.562,677.011L301.209,711.663L339.616,733.754L377.628,747.473L418.089,753.891L466.255,752.843L529.596,741.966L647.972,708.394L720.899,687.226L761.844,680.216L787.314,680.171L804.763,683.256L817.283,687.72L829.746,694.921L839.964,704.247L847.664,714.394L855.248,729.787L863.176,762.026L867.741,848.33L868.622,1031.84" style="fill:none;fill-rule:nonzero;stroke:black;stroke-width:1.01px;"/>
        <path d="M24.114,450.078L189.152,617.46L254.746,678.786L299.347,713.499L337.191,735.463L375.079,749.524L415.476,756.33L463.648,755.698L527.045,745.172L640.73,713.342L718.903,690.357L761.44,682.807L786.909,682.635L804.898,685.833L817.381,690.397L829.745,697.765L837.584,704.782L844.922,713.809L852.795,728.432L860.329,754.484L865.802,817.383L867.275,1031.93" style="fill:none;fill-rule:nonzero;stroke:black;stroke-width:1.01px;"/>
        <path d="M24.248,453.821L188.123,620.014L253.747,681.308L298.825,716.311L337.213,738.435L375.164,752.328L415.576,759.057L463.748,758.385L526.608,747.997L645.082,714.782L721.176,692.589L762.1,685.458L787.016,685.318L804.462,688.405L817.443,693.212L830.099,701.148L838.164,708.735L847.13,721.367L855.176,740.794L862.564,784.446L865.827,1031.65" style="fill:none;fill-rule:nonzero;stroke:black;stroke-width:1.01px;"/>
        <path d="M24.382,457.565L185.931,621.38L251.502,682.732L296.947,718.166L334.744,740.213L370.434,753.85L410.711,761.35L456.673,761.665L516.967,752.832L616.605,726.396L711.638,697.844L756.718,688.795L784.385,687.893L801.899,690.577L814.973,695.129L825.127,700.794L834.49,708.584L842.514,718.468L850.203,733.182L857.88,761.486L862.917,831.098L864.145,1031.79" style="fill:none;fill-rule:nonzero;stroke:black;stroke-width:1.01px;"/>
        <path d="M24.129,460.913L186.491,625.483L251.774,686.33L296.894,721.277L334.78,743.168L372.65,757.288L413.006,764.348L460.076,764.214L521.401,754.763L629.449,725.448L716.066,699.717L759.05,691.51L784.512,690.876L801.469,693.532L814.535,698.103L824.158,703.585L832.681,710.653L840.152,719.563L847.641,733.131L855.347,759.125L860.78,819.804L862.396,1031.58" style="fill:none;fill-rule:nonzero;stroke:black;stroke-width:1.01px;"/>
        <path d="M24.263,464.656L183.101,625.694L249.093,687.406L294.535,722.846L334.291,745.923L372.722,760.123L413.093,767.102L461.269,766.891L524.21,757.015L633.29,727.258L718.364,702.185L759.198,694.524L784.66,693.936L802.132,696.85L813.583,701.008L824.98,707.828L833.881,716.139L841.319,726.474L847.516,739.468L855.223,771.762L859.629,865.291L860.509,1031.61" style="fill:none;fill-rule:nonzero;stroke:black;stroke-width:1.01px;"/>
        <path d="M24.009,468.004L183.671,629.786L248.949,690.64L294.481,725.962L334.31,748.913L372.766,763.047L413.14,770.015L460.765,769.888L521.564,760.647L630.74,731.264L716.34,706.002L759.329,697.827L784.239,697.279L799.556,699.685L811.093,703.596L820.33,708.634L829.737,716.365L837.395,725.833L844.353,739.061L851.996,766.798L857.083,835.294L858.413,1031.55" style="fill:none;fill-rule:nonzero;stroke:black;stroke-width:1.01px;"/>
        <path d="M24.144,471.748L180.665,630.398L246.261,691.723L292.113,727.538L331.811,750.716L370.141,765.192L410.436,772.613L458.059,772.995L518.924,764.23L618.65,738.127L713.804,709.975L756.734,701.476L782.188,700.599L799.686,703.348L812.134,707.99L821.561,713.8L829.759,721.244L837.262,731.527L844.176,746.626L851.991,784.554L856.223,1031.72" style="fill:none;fill-rule:nonzero;stroke:black;stroke-width:1.01px;"/>
        <path d="M24.278,475.491L178.08,631.373L244.436,693.51L291.599,730.345L332.321,753.963L370.174,768.146L411.022,775.618L458.646,775.99L519.522,767.297L620.878,740.859L713.949,713.487L756.896,705.073L781.799,704.304L797.126,706.632L809.654,711.051L818.273,716.057L827.025,723.706L834.642,733.906L841.638,748.965L849.504,786.88L853.784,1031.82" style="fill:none;fill-rule:nonzero;stroke:black;stroke-width:1.01px;"/>
        <path d="M24.025,478.839L179.423,636.261L246.371,698.572L291.971,733.807L331.287,756.547L370.161,771.149L411.558,778.694L458.629,779.119L519.532,770.606L620.415,744.557L714.608,717.07L757.04,708.918L781.946,708.36L797.229,710.956L809.616,715.751L817.588,720.761L824.908,727.523L831.569,736.37L838.869,751.894L846.708,789.815L850.976,1031.99" style="fill:none;fill-rule:nonzero;stroke:black;stroke-width:1.01px;"/>
        <path d="M24.159,482.583L181.178,641.52L245.789,701.46L291.424,736.649L329.76,758.875L369.626,773.988L411.002,781.654L458.626,782.266L519.013,774.066L617.848,748.958L713.689,721.18L756.678,713.001L779.374,712.429L794.687,714.84L804.623,718.3L814.208,723.839L822.479,731.197L828.519,739.123L834.991,751.977L842.514,782.031L847.178,873.877L848.135,1031.88" style="fill:none;fill-rule:nonzero;stroke:black;stroke-width:1.01px;"/>
        <path d="M24.293,486.326L178.579,642.51L243.952,703.26L289.515,738.545L329.238,761.69L368.017,776.55L410.431,784.682L458.604,785.517L519.024,777.564L617.937,752.765L713.857,725.264L756.337,717.383L779.587,717.077L794.288,719.761L804.602,723.788L812.147,728.435L819.867,735.574L826.094,744.053L832.311,757.035L840.013,791.589L844.766,1031.52" style="fill:none;fill-rule:nonzero;stroke:black;stroke-width:1.01px;"/>
        <path d="M24.041,489.673L178.344,645.839L243.356,706.162L289.404,741.723L327.182,763.814L366.904,779.311L408.161,787.606L455.767,789.027L515.176,781.932L605.195,760.43L711.324,730.311L753.79,722.346L777.038,721.937L789.606,724.003L799.554,727.424L806.838,731.419L813.351,736.573L819.926,744.062L825.844,754.069L832.409,772.88L838.664,822.868L841.105,1031.85" style="fill:none;fill-rule:nonzero;stroke:black;stroke-width:1.01px;"/>
        <path d="M24.304,488.178L177.809,643.574L243.607,704.68L289.198,739.928L327.457,762.288L367.206,777.716L407.948,785.749L456.111,787.122L517.116,779.398L611.281,756.176L710.935,727.612L751.734,719.757L774.428,719.186L789.787,721.316L799.788,724.576L807.167,728.395L814.642,734.118L821.321,741.512L828.497,753.985L835.025,774.56L840.92,831.286L842.92,1031.96" style="fill:none;fill-rule:nonzero;stroke:black;stroke-width:1.01px;"/>
        <path d="M24.175,493.418L175.753,646.82L241.1,707.599L287.039,743.306L327.145,766.895L367.389,782.573L410.298,791.065L458.464,792.343L518.962,785.02L614.873,761.945L711.514,734.953L752.394,727.543L774.538,727.233L787.097,729.34L797.004,732.876L804.656,737.337L812.194,743.855L818.262,751.756L824.445,764.136L832.078,797.002L836.599,953.757L837.061,1031.92" style="fill:none;fill-rule:nonzero;stroke:black;stroke-width:1.01px;"/>
        <path d="M24.285,492.365L175.466,645.382L241.199,706.558L286.678,741.955L327.26,765.827L365.409,780.791L408.272,789.507L455.876,790.764L514.197,783.894L607.457,761.65L708.816,733.003L749.642,725.287L773.99,724.464L787.145,726.366L794.576,728.59L804.479,733.536L811.463,738.985L818.008,746.499L824.155,757.01L830.81,776.958L836.802,829.771L839.001,1031.55" style="fill:none;fill-rule:nonzero;stroke:black;stroke-width:1.01px;"/>
        <path d="M24.31,497.161L175.907,650.546L241.341,711.228L287.839,747.115L329.56,771.224L369.974,786.463L412.399,794.567L461.122,795.75L522.174,788.368L620.275,764.921L711.178,740.059L751.573,733.11L772.06,733.052L784.595,735.298L794.428,739.036L801.962,743.694L807.728,748.875L813.847,756.74L819.965,769.152L827.364,800.937L831.711,921.1L832.39,1031.98" style="fill:none;fill-rule:nonzero;stroke:black;stroke-width:1.01px;"/>
        <path d="M24.262,495.836L175.458,648.836L241.271,709.927L286.84,745.207L326.977,768.741L367.765,784.546L410.684,792.997L458.301,794.295L519.357,786.955L614.218,764.25L708.776,738.044L751.303,730.394L771.789,730.019L784.384,731.92L794.349,735.289L801.168,738.979L807.325,743.694L812.279,748.921L817.308,756.217L823.238,769.332L830.736,807.319L834.762,1031.76" style="fill:none;fill-rule:nonzero;stroke:black;stroke-width:1.01px;"/>
        <path d="M24.057,500.508L173.309,651.534L239.069,712.682L285.893,749.054L326.975,773.168L367.734,789.053L410.602,797.774L458.753,799.573L519.344,793.055L613.37,771.657L708.7,746.18L749.136,739.48L769.068,739.615L779.434,741.44L789.331,744.999L796.478,749.228L802.376,754.261L807.05,759.737L812.624,769.303L819.366,789.8L825.232,847.639L827.144,1031.69" style="fill:none;fill-rule:nonzero;stroke:black;stroke-width:1.01px;"/>
        <path d="M24.178,499.463L174.211,651.275L241.279,713.455L288.291,749.582L329.595,773.308L370.02,788.526L411.344,796.493L463.38,797.732L528.23,789.51L632.664,763.932L715.148,741.94L754.024,736.047L771.74,736.444L784.22,738.971L794.401,743.311L802.099,748.727L807.163,753.848L812.561,761.558L819.169,776.785L826.237,817.115L829.774,1031.6" style="fill:none;fill-rule:nonzero;stroke:black;stroke-width:1.01px;"/>
        <path d="M24.193,504.253L173.08,654.857L238.901,715.941L286.702,752.859L327.395,776.54L367.641,792.228L410.468,801.156L460.823,803.258L521.988,796.899L616.66,775.844L708.449,752.165L746.783,746.372L764.5,746.693L776.458,749.008L784.21,751.989L791.778,756.59L797.175,761.354L802.065,767.372L807.191,776.561L813.629,797.157L819.257,857.808L821.003,1031.88" style="fill:none;fill-rule:nonzero;stroke:black;stroke-width:1.01px;"/>
        <path d="M24.305,503.343L173.986,654.723L239.008,715.036L284.525,750.387L327.028,775.355L367.268,791.059L410.661,799.968L459.363,801.742L524.335,794.519L624.199,771.302L708.919,749.07L748.864,742.827L767.135,743.129L779.616,745.646L787.835,748.951L794.862,753.377L800.917,759.061L806.786,767.115L813.282,781.788L820.462,822.09L824.01,1031.59" style="fill:none;fill-rule:nonzero;stroke:black;stroke-width:1.01px;"/>
        <path d="M24.328,507.996L173.243,658.572L238.299,718.85L286.568,756.067L327.766,779.986L368.001,795.704L412.993,805.087L463.348,807.242L525.096,801.114L621.524,780.303L706.037,759.517L743.913,754.46L761.608,755.326L771.846,757.744L779.481,761.018L786.82,765.979L792.261,771.5L797.564,779.272L803.851,794.635L810.503,837.841L813.524,1031.84" style="fill:none;fill-rule:nonzero;stroke:black;stroke-width:1.01px;"/>
        <path d="M24.034,506.529L173.726,657.897L238.803,718.151L286.653,755.006L327.372,778.648L367.62,794.329L410.436,803.32L458.57,805.568L520.878,799.552L614.037,779.349L705.932,756.082L744.284,750.399L762,750.772L774.467,753.352L782.162,756.482L789.606,761.282L795.165,766.684L800.644,774.336L806.352,786.941L813.577,824.979L817.383,1031.69" style="fill:none;fill-rule:nonzero;stroke:black;stroke-width:1.01px;"/>
        <path d="M24.021,505.195L174.101,656.959L238.753,716.857L286.574,753.749L327.279,777.414L367.535,793.073L410.925,802.012L461.287,804.002L522.447,797.59L616.05,776.833L701.367,754.684L743.993,747.637L766.664,748.544L778.43,751.657L784.42,754.545L793.653,761.605L798.47,766.955L804.542,776.869L810.71,794.643L816.873,847.985L819.044,1031.47" style="fill:none;fill-rule:nonzero;stroke:black;stroke-width:1.01px;"/>
        <path d="M479.412,805.02L544.715,795.897L703.114,757.589L741.439,751.744L759.152,752.248L769.49,754.231L779.808,758.259L784.625,760.998L791.425,766.677L796.998,773.562L802.212,783.329L808.972,807.291L814.108,883.553L815.351,1031.57" style="fill:none;fill-rule:nonzero;stroke:black;stroke-width:1.01px;"/>
        <path d="M24.075,511.343L171.044,659.947L236.451,720.661L284.172,757.685L324.693,781.668L366.298,798.441L410.621,808.315L460.934,811.319L521.676,806.376L614.089,788.047L701.017,767.823L736.744,763.397L753.887,764.245L764.141,766.603L771.773,769.877L776.921,773.136L781.899,777.537L787.088,784.021L792.484,794.316L798.764,817.264L803.794,895.201L804.949,1031.58" style="fill:none;fill-rule:nonzero;stroke:black;stroke-width:1.01px;"/>
        <path d="M24.083,510.364L170.257,658.195L236.447,719.695L284.168,756.718L324.704,780.675L367.405,797.677L410.712,807.014L459.378,809.651L518.996,804.51L612.944,785.386L701.327,764.077L739.19,758.912L756.895,759.595L767.18,761.809L774.386,764.665L781.889,769.369L787.179,774.25L792.195,780.868L797.758,792.318L804.612,822.527L809.269,1004.24L809.434,1031.96" style="fill:none;fill-rule:nonzero;stroke:black;stroke-width:1.01px;"/>
        <path d="M24.167,509.346L171.917,658.737L236.929,719.061L284.217,755.737L324.756,779.69L365.886,796.155L408.057,805.512L458.374,808.389L519.633,803.002L610.28,784.327L698.554,762.567L736.339,756.841L754.068,756.609L767.128,759.083L776.938,762.88L783.054,766.674L788.777,771.903L794.388,779.46L800.259,791.988L807.155,825.588L811.396,1031.72" style="fill:none;fill-rule:nonzero;stroke:black;stroke-width:1.01px;"/>
        <path d="M449.466,810.178L505.336,807.163L582.84,793.541L693.39,767.188L736.127,760.869L754.379,761.747L765.205,764.092L774.378,767.982L779.486,771.306L785.498,777.032L790.962,784.694L796.586,797.338L803.706,837.644L807.148,1031.62" style="fill:none;fill-rule:nonzero;stroke:black;stroke-width:1.01px;"/>
        <path d="M24.21,515.088L170.798,663.288L236.677,724.307L284.012,760.927L327.01,786.155L369.774,803.007L415.804,812.858L468.348,815.658L532.39,810.246L691.069,778.391L729.055,774.255L743.978,775.212L754.221,777.614L761.845,780.909L766.958,784.224L771.885,788.685L776.675,794.781L781.793,804.6L787.971,827.576L792.929,910.517L793.954,1031.92" style="fill:none;fill-rule:nonzero;stroke:black;stroke-width:1.01px;"/>
        <path d="M24.166,513.883L171.148,662.474L236.618,723.12L284.412,760.051L326.964,784.945L367.642,801.058L413.095,810.962L463.423,813.693L526.912,808.312L695.651,773.14L733.603,768.703L749.084,769.594L758.808,771.79L766.962,775.245L772.977,779.195L778.545,784.586L783.934,792.303L789.403,805.016L796.304,845.365L799.619,1031.59" style="fill:none;fill-rule:nonzero;stroke:black;stroke-width:1.01px;"/>
        <path d="M24.313,513.06L170.899,661.265L236.337,721.944L284.093,758.924L326.625,783.855L367.832,800.127L413.323,809.844L463.662,812.418L524.938,807.151L617.351,788.809L698.409,770.275L736.383,766.05L751.857,767.019L761.57,769.263L769.215,772.502L774.373,775.745L779.355,780.145L784.542,786.631L789.501,795.907L795.762,817.711L800.978,890.077L802.272,1032" style="fill:none;fill-rule:nonzero;stroke:black;stroke-width:1.01px;"/>
        <path d="M284.035,760.386L327.037,785.609L367.692,801.781L413.112,811.833L461.765,814.737L525.842,809.704L620.007,791.658L695.839,775.162L732.207,771.506L748.763,772.821L759.42,775.815L766.367,779.254L771.721,783.188L777.025,788.839L781.867,796.259L787.228,809.613L793.835,852.822L796.767,1031.85" style="fill:none;fill-rule:nonzero;stroke:black;stroke-width:1.01px;"/>
        <path d="M24.345,518.831L167.81,663.882L233.983,725.402L282.054,762.88L324.892,788.385L367.463,805.728L413.327,816.333L465.806,820.199L529.952,816.205L681.179,789.687L718.705,786.578L734.128,788.152L744.218,791.123L751.118,794.654L756.833,799.031L761.657,804.375L766.579,812.397L772.009,827.5L778.125,878.052L780.339,1031.6" style="fill:none;fill-rule:nonzero;stroke:black;stroke-width:1.01px;"/>
        <path d="M24.211,517.537L168.46,663.373L234.242,724.499L284.164,763.202L327.223,788.328L370.01,805.125L418.219,815.364L469.664,818.035L537.028,812.438L686.209,783.95L723.684,780.245L739.144,781.438L749.332,784.061L755.88,787.056L761.838,791.093L766.942,796.168L771.728,802.956L776.927,814.577L783.876,852.666L787.398,1031.67" style="fill:none;fill-rule:nonzero;stroke:black;stroke-width:1.01px;"/>
        <path d="M24.14,516.657L171.547,665.607L237.515,726.529L284.967,762.993L327.103,787.506L369.901,804.274L415.385,814.026L466.819,816.884L529.245,812.05L635.974,791.829L698.527,779.593L728.902,777.293L743.783,778.735L753.893,781.638L761.748,785.727L766.561,789.465L771.49,794.713L776.235,802.195L781.939,817.196L788.303,865.478L790.751,1031.77" style="fill:none;fill-rule:nonzero;stroke:black;stroke-width:1.01px;"/>
        <path d="M294.584,770.646L336.996,793.527L380.344,808.82L423.347,816.915L473.706,819.04L537.764,813.739L680.568,787.331L718.587,783.435L734.065,784.381L744.321,786.733L750.981,789.474L756.644,792.951L761.683,797.284L766.872,803.764L771.751,813.083L777.773,834.954L782.808,913.447L783.889,1031.53" style="fill:none;fill-rule:nonzero;stroke:black;stroke-width:1.01px;"/>
        <path d="M24.093,522.178L169.155,668.769L235.898,730.486L281.891,766.129L324.705,791.677L367.727,809.385L415.145,820.648L468.693,825.103L536.762,821.762L666.261,803.211L701.105,801.336L716.505,803.134L726.569,806.193L733.466,809.731L739.163,814.129L743.966,819.493L748.85,827.537L754.193,842.672L760.247,895.462L762.276,1031.82" style="fill:none;fill-rule:nonzero;stroke:black;stroke-width:1.01px;"/>
        <path d="M24.318,521.092L168.591,666.904L236.133,729.389L281.692,764.687L324.51,790.231L368.617,808.203L413.397,818.594L465.863,822.681L531.701,819.103L674.008,796.329L708.806,793.729L726.426,795.544L736.475,798.651L743.314,802.299L748.982,806.739L754.079,812.579L759.242,821.739L765.369,842.426L770.564,910.905L771.862,1031.76" style="fill:none;fill-rule:nonzero;stroke:black;stroke-width:1.01px;"/>
        <path d="M24.052,520.047L168.713,666.255L236.249,728.748L282.267,764.355L324.641,789.562L369.836,807.79L415.793,817.986L468.3,821.496L534.656,817.26L678.392,792.925L713.73,790.165L729.168,791.613L738.786,794.229L746.26,797.847L751.672,801.703L756.686,806.871L761.833,814.748L766.796,827.071L773.347,870.286L776.183,1031.57" style="fill:none;fill-rule:nonzero;stroke:black;stroke-width:1.01px;"/>
        <path d="M24.099,519.3L169.547,666.289L233.742,725.865L282.269,763.66L324.634,788.879L367.726,806.405L413.612,816.922L466.096,820.741L529.146,816.961L683.166,790.328L713.529,787.842L731.742,789.429L741.258,792.398L749.104,796.524L755.966,802.117L761.747,809.541L766.858,819.982L773.585,850.213L778.137,1031.93" style="fill:none;fill-rule:nonzero;stroke:black;stroke-width:1.01px;"/>
        <path d="M512.269,820.049L603.351,807.12L684.766,793.222L718.523,791.857L732.674,794.473L743.788,799.448L747.91,802.248L753.111,807.228L758.565,814.899L764.188,828.144L770.857,870.217L773.834,1031.5" style="fill:none;fill-rule:nonzero;stroke:black;stroke-width:1.01px;"/>
        <path d="M24.212,521.606L169.276,668.195L236.021,729.909L282.026,765.536L324.36,790.81L367.896,808.721L410.964,819.154L461.151,823.944L522.617,821.621L623.555,807.093L683.892,798.354L711.024,797.904L724.142,800.019L734.03,803.596L740.2,807.302L745.964,812.482L751.525,820.072L756.572,831.154L763.641,870.338L767.003,1031.61" style="fill:none;fill-rule:nonzero;stroke:black;stroke-width:1.01px;"/>
        <path d="M449.783,822.672L509.06,821.905L600.794,809.674L673.505,797.476L706.102,795.261L722.625,797.034L733.734,800.478L741.551,804.642L746.708,808.83L751.741,814.726L756.196,822.383L761.442,837.555L767.388,890.363L769.412,1031.71" style="fill:none;fill-rule:nonzero;stroke:black;stroke-width:1.01px;"/>
        <path d="M471.573,824.499L542.368,820.175L672.868,800.787L708.847,799.482L722.971,802.226L731.258,805.366L738.364,809.66L744.106,814.87L749.023,821.559L754.128,832.615L761.129,870.124L764.663,1031.94" style="fill:none;fill-rule:nonzero;stroke:black;stroke-width:1.01px;"/>
        <path d="M24.228,525.923L167.734,670.933L234.443,732.686L284.01,770.947L327.487,796.463L372.71,814.638L420.734,825.762L478.701,830.577L555.102,827.345L648.348,818.266L681.023,818.469L696.261,821.317L705.544,824.94L711.225,828.388L716.317,832.661L720.665,837.685L726.363,847.814L732.205,868.01L737.49,940.927L738.579,1031.84" style="fill:none;fill-rule:nonzero;stroke:black;stroke-width:1.01px;"/>
        <path d="M24.383,524.752L169.069,670.934L236.278,732.963L284.178,769.758L327.212,794.933L367.715,811.503L415.633,823.052L471.385,827.757L541.14,824.845L657.801,810.638L691.021,809.701L706.377,811.85L715.338,814.735L723.593,819.248L729.076,823.909L733.979,829.915L738.955,839.18L745.268,862.685L750.251,953.954L750.98,1031.57" style="fill:none;fill-rule:nonzero;stroke:black;stroke-width:1.01px;"/>
        <path d="M233.955,730.342L281.651,767.402L324.98,793.17L367.477,810.705L413.239,821.751L466.204,826.539L529.335,824.251L662.912,806.911L696.119,805.591L711.494,807.58L721.525,810.747L728.827,814.702L733.998,818.874L739.045,824.758L743.973,833.417L749.956,852.992L755.309,918.675L756.668,1031.76" style="fill:none;fill-rule:nonzero;stroke:black;stroke-width:1.01px;"/>
        <path d="M24.16,523.113L168.435,668.922L235.998,731.385L284.313,768.548L327.356,793.706L370.025,810.812L418.087,821.749L471.112,825.824L539.175,822.316L658.273,805.406L695.86,803.107L713.99,805.39L724.026,808.532L730.894,812.127L736.557,816.568L741.647,822.417L746.155,830.041L751.445,845.196L757.42,898L759.426,1031.59" style="fill:none;fill-rule:nonzero;stroke:black;stroke-width:1.01px;"/>
        <path d="M549.933,822.725L660.415,808.248L693.635,807.399L711.116,810.286L720.974,813.948L726.68,817.357L731.36,821.255L736.368,827.175L741.473,836.367L747.586,857.635L752.809,936.111L753.809,1031.46" style="fill:none;fill-rule:nonzero;stroke:black;stroke-width:1.01px;"/>
        <path d="M186.124,688.065L246.409,742.048L291.935,775.54L334.567,799.183L380.238,816.2L430.734,826.367L487.71,829.407L561.279,824.85L653.276,814.498L685.953,814.121L701.257,816.596L710.654,819.917L718.724,824.753L724.042,829.602L728.451,835.293L733.451,845.172L739.655,870.423L744.45,982.24L744.862,1031.58" style="fill:none;fill-rule:nonzero;stroke:black;stroke-width:1.01px;"/>
        <path d="M405.551,821.755L461.12,828.243L527.046,826.951L648.206,813.073L683.628,811.615L701.228,813.687L711.312,816.691L717.768,819.877L724.049,824.421L728.98,829.665L734.034,837.603L739.606,852.651L745.751,903.198L747.897,1031.79" style="fill:none;fill-rule:nonzero;stroke:black;stroke-width:1.01px;"/>
        <path d="M439.252,827.711L496.275,829.778L591.303,822.288L655.823,815.72L683.509,816.239L698.77,819.002L707.609,822.236L713.844,825.835L719.017,830.008L723.469,834.942L728.091,842.501L733.546,857.596L739.626,908.712L741.715,1031.76" style="fill:none;fill-rule:nonzero;stroke:black;stroke-width:1.01px;"/>
        <path d="M24.363,529.666L168.304,675.026L233.844,735.596L283.859,774.182L327.285,799.787L372.913,818.442L423.528,830.651L484.183,836.565L620.508,834.03L653.096,836.42L667.582,840.113L676.174,843.962L683.478,848.968L689.248,854.94L694.415,862.803L699.599,875.634L706.241,918.836L709.03,1031.88" style="fill:none;fill-rule:nonzero;stroke:black;stroke-width:1.01px;"/>
        <path d="M24.035,528.059L169.159,674.589L234.324,734.747L283.93,772.956L327.408,798.47L370.483,816.065L420.565,828.104L481.266,833.508L575.409,830.128L642.916,826.17L670.546,827.967L683.463,831.096L692.088,834.864L698.55,839.15L703.714,844.166L708.305,850.414L713.697,861.945L720.871,900.547L724.295,1031.87" style="fill:none;fill-rule:nonzero;stroke:black;stroke-width:1.01px;"/>
        <path d="M350.485,808.271L395.384,822.431L448.47,830.738L511.615,832.003L640.415,822.425L673.641,822.995L688.327,825.795L698.642,829.815L706.072,834.638L711.249,839.64L716.094,846.385L721.307,857.999L728.295,897.763L731.527,1031.87" style="fill:none;fill-rule:nonzero;stroke:black;stroke-width:1.01px;"/>
        <path d="M24.003,526.639L167.124,671.252L234.662,733.742L284.276,771.94L327.296,797.139L370.94,814.795L420.553,826.408L476.295,831.282L551.605,828.493L642.683,820.054L678.667,820.95L693.315,823.932L701.069,826.918L708.637,831.525L713.917,836.416L718.626,842.577L723.795,852.987L730.505,883.223L734.952,1031.68" style="fill:none;fill-rule:nonzero;stroke:black;stroke-width:1.01px;"/>
        <path d="M498.064,832.817L643.013,824.057L673.427,825.702L688.487,829.367L696.043,832.817L702.882,837.526L707.954,842.634L713.205,850.445L718.743,864.322L725.295,910.896L727.783,1031.72" style="fill:none;fill-rule:nonzero;stroke:black;stroke-width:1.01px;"/>
        <path d="M324.7,797.672L370.195,816.65L420.208,828.991L476.434,834.627L562.317,833.427L633.198,830.258L662.469,832.411L675.891,835.807L684.957,839.943L690.891,844.02L696.035,849.057L700.617,855.313L705.437,865.283L712.183,895.514L716.682,1031.77" style="fill:none;fill-rule:nonzero;stroke:black;stroke-width:1.01px;"/>
        <path d="M493.848,834.602L627.827,828.155L663.235,829.754L678.372,833.101L688.55,837.458L695.807,842.537L700.88,847.647L706.074,855.494L711.098,867.794L717.784,910.986L720.585,1031.8" style="fill:none;fill-rule:nonzero;stroke:black;stroke-width:1.01px;"/>
    </g>
</svg>
